<?xml version="1.0" encoding="UTF-8" standalone="no"?>
<!-- Created with Inkscape (http://www.inkscape.org/) -->

<svg
   xmlns:dc="http://purl.org/dc/elements/1.1/"
   xmlns:cc="http://creativecommons.org/ns#"
   xmlns:rdf="http://www.w3.org/1999/02/22-rdf-syntax-ns#"
   xmlns:svg="http://www.w3.org/2000/svg"
   xmlns="http://www.w3.org/2000/svg"
   xmlns:sodipodi="http://sodipodi.sourceforge.net/DTD/sodipodi-0.dtd"
   xmlns:inkscape="http://www.inkscape.org/namespaces/inkscape"
   width="425.32843"
   height="221.75"
   id="svg2"
   version="1.1"
   inkscape:version="0.48.5 r10040"
   sodipodi:docname="icons.svg">
  <defs
     id="defs4" />
  <sodipodi:namedview
     id="base"
     pagecolor="#ffffff"
     bordercolor="#666666"
     borderopacity="1.0"
     inkscape:pageopacity="0.0"
     inkscape:pageshadow="2"
     inkscape:zoom="1"
     inkscape:cx="141.51118"
     inkscape:cy="48.373768"
     inkscape:document-units="px"
     inkscape:current-layer="layer1"
     showgrid="false"
     inkscape:window-width="1364"
     inkscape:window-height="766"
     inkscape:window-x="1"
     inkscape:window-y="1"
     inkscape:window-maximized="0"
     fit-margin-top="10"
     fit-margin-left="10"
     fit-margin-right="10"
     fit-margin-bottom="10" />
  <metadata
     id="metadata7">
    <rdf:RDF>
      <cc:Work
         rdf:about="">
        <dc:format>image/svg+xml</dc:format>
        <dc:type
           rdf:resource="http://purl.org/dc/dcmitype/StillImage" />
        <dc:title></dc:title>
      </cc:Work>
    </rdf:RDF>
  </metadata>
  <g
     inkscape:label="Layer 1"
     inkscape:groupmode="layer"
     id="layer1"
     transform="translate(-3.8921354,35.011958)">
    <path
       sodipodi:type="inkscape:offset"
       inkscape:radius="0.40013596"
       inkscape:original="M 62.65625 5.0625 A 0.50005 0.50005 0 0 0 62.28125 5.5625 L 62.28125 8.625 C 57.798068 9.020232 54.271095 12.653912 54.1875 17.21875 L 51.15625 17.21875 A 0.50005 0.50005 0 1 0 51.15625 18.21875 L 54.3125 18.21875 C 54.734015 22.448825 58.037553 25.719631 62.28125 26.09375 L 62.28125 29.15625 A 0.50005 0.50005 0 1 0 63.28125 29.15625 L 63.28125 26.1875 C 67.763966 26.054894 71.309158 22.618492 71.75 18.21875 L 74.8125 18.21875 A 0.50005 0.50005 0 1 0 74.8125 17.21875 L 71.90625 17.21875 C 71.81959 12.478122 68.008881 8.6711007 63.28125 8.53125 L 63.28125 5.5625 A 0.50005 0.50005 0 0 0 62.71875 5.0625 A 0.50005 0.50005 0 0 0 62.65625 5.0625 z M 63.28125 9.53125 C 67.468085 9.6692851 70.820553 13.018669 70.90625 17.21875 L 68.6875 17.21875 C 68.602441 14.252824 66.234208 11.886807 63.28125 11.75 L 63.28125 9.53125 z M 62.28125 9.625 L 62.28125 11.8125 A 0.50005 0.50005 0 0 0 62.28125 11.84375 C 59.572207 12.218568 57.454826 14.427457 57.375 17.21875 L 55.1875 17.21875 C 55.26973 13.196395 58.343259 10.016025 62.28125 9.625 z M 63.03125 12.6875 C 65.621076 12.6875 67.71875 14.785174 67.71875 17.375 C 67.71875 19.964825 65.621076 22.03125 63.03125 22.03125 C 60.441424 22.03125 58.34375 19.964825 58.34375 17.375 C 58.34375 14.785174 60.441424 12.6875 63.03125 12.6875 z M 55.3125 18.21875 L 57.40625 18.21875 A 0.50005 0.50005 0 0 0 57.53125 18.21875 C 57.919257 20.67453 59.810657 22.533173 62.28125 22.875 A 0.50005 0.50005 0 0 0 62.28125 22.90625 L 62.28125 25.09375 C 58.581902 24.726422 55.723524 21.904906 55.3125 18.21875 z M 68.53125 18.21875 C 68.531576 18.21665 68.56218 18.22085 68.5625 18.21875 L 70.75 18.21875 C 70.317657 22.075969 67.223449 25.05753 63.28125 25.1875 L 63.28125 22.96875 C 65.98896 22.843305 68.11566 20.842095 68.53125 18.21875 z "
       style="font-size:medium;font-style:normal;font-variant:normal;font-weight:normal;font-stretch:normal;text-indent:0;text-align:start;text-decoration:none;line-height:normal;letter-spacing:normal;word-spacing:normal;text-transform:none;direction:ltr;block-progression:tb;writing-mode:lr-tb;text-anchor:start;baseline-shift:baseline;color:#000000;fill:#f2f2f2;fill-opacity:1;stroke:#000000;stroke-width:0.5;stroke-miterlimit:4;stroke-opacity:1;stroke-dasharray:none;marker:none;visibility:visible;display:inline;overflow:visible;enable-background:accumulate;font-family:Sans;-inkscape-font-specification:Sans"
       id="center"
       d="M 62.59375,4.65625 A 0.40017598,0.40017598 0 0 0 62.5625,4.6875 c -0.0014,3.507e-4 -0.0299,-4.078e-4 -0.03125,0 -0.0013,4.078e-4 -0.06117,-4.641e-4 -0.0625,0 -0.0013,4.641e-4 -0.02994,0.03073 -0.03125,0.03125 -0.0013,5.197e-4 -0.02997,-5.743e-4 -0.03125,0 -0.0013,5.743e-4 -0.02999,0.030622 -0.03125,0.03125 -0.0013,6.278e-4 -0.03002,-6.803e-4 -0.03125,0 -0.0012,6.803e-4 -0.03005,0.030518 -0.03125,0.03125 -0.0012,7.316e-4 -0.03008,0.030468 -0.03125,0.03125 -0.0012,7.815e-4 -0.03012,-8.301e-4 -0.03125,0 -0.0011,8.301e-4 -0.03015,0.030373 -0.03125,0.03125 -0.0011,8.771e-4 -0.03019,0.030327 -0.03125,0.03125 -0.0011,9.227e-4 -0.03023,0.030284 -0.03125,0.03125 -0.001,9.665e-4 -0.03027,-0.00101 -0.03125,0 -9.78e-4,0.00101 -0.03032,0.030201 -0.03125,0.03125 -9.35e-4,0.00105 8.9e-4,0.030162 0,0.03125 -8.9e-4,0.00109 -0.03041,0.030126 -0.03125,0.03125 -8.43e-4,0.00112 -0.03046,0.030091 -0.03125,0.03125 -7.95e-4,0.00116 7.45e-4,0.030059 0,0.03125 -7.45e-4,0.00119 -0.03056,0.030028 -0.03125,0.03125 -6.94e-4,0.00122 -0.03061,0.03 -0.03125,0.03125 -6.42e-4,0.00125 5.89e-4,0.029974 0,0.03125 -5.89e-4,0.00128 -0.03072,0.061201 -0.03125,0.0625 -5.35e-4,0.0013 4.79e-4,0.029929 0,0.03125 -4.79e-4,0.00132 4.23e-4,0.02991 0,0.03125 -4.23e-4,0.00134 -0.03088,0.029894 -0.03125,0.03125 -3.66e-4,0.00136 3.09e-4,0.029879 0,0.03125 -3.09e-4,0.00137 2.51e-4,0.029867 0,0.03125 -2.51e-4,0.00138 -0.03106,0.061108 -0.03125,0.0625 -1.92e-4,0.00139 1.33e-4,0.029851 0,0.03125 -1.33e-4,0.0014 7.4e-5,0.029847 0,0.03125 -7.4e-5,0.0014 1.5e-5,0.029845 0,0.03125 -1.5e-5,0.00141 -4.4e-5,0.029846 0,0.03125 l 0,2.71875 c -4.363573,0.5618399 -7.785302,4.086254 -8.0625,8.53125 l -2.65625,0 c -0.0016,-2.3e-5 -0.0296,-5.8e-5 -0.03125,0 -0.0016,5.8e-5 -0.06086,-1.4e-4 -0.0625,0 -0.0016,1.4e-4 -0.02961,-2.21e-4 -0.03125,0 -0.0016,2.21e-4 -0.02963,0.03095 -0.03125,0.03125 -0.0016,3.02e-4 -0.0609,-3.82e-4 -0.0625,0 -0.0016,3.82e-4 -0.02967,-4.61e-4 -0.03125,0 -0.0016,4.61e-4 -0.06094,0.03071 -0.0625,0.03125 -0.0016,5.39e-4 -0.02972,-6.15e-4 -0.03125,0 -0.0015,6.15e-4 -0.02975,0.03056 -0.03125,0.03125 -0.0015,6.9e-4 -0.06104,-7.63e-4 -0.0625,0 -0.0015,7.63e-4 -0.02983,0.03042 -0.03125,0.03125 -0.0014,8.35e-4 -0.02987,0.03035 -0.03125,0.03125 -0.0014,9.04e-4 -0.02992,0.03028 -0.03125,0.03125 -0.0013,9.71e-4 -0.02997,0.03021 -0.03125,0.03125 -0.0013,0.001 -0.03002,0.03015 -0.03125,0.03125 -0.0012,0.0011 -0.03007,-0.0012 -0.03125,0 -0.0012,0.0012 -0.03013,0.06129 -0.03125,0.0625 -0.0011,0.0012 -0.0302,0.02998 -0.03125,0.03125 -0.0011,0.0013 -0.03026,0.02993 -0.03125,0.03125 -9.9e-4,0.0013 -0.03033,0.02988 -0.03125,0.03125 -9.24e-4,0.0014 -0.03039,0.02984 -0.03125,0.03125 -8.55e-4,0.0014 -0.03047,0.0298 -0.03125,0.03125 -7.84e-4,0.0015 7.11e-4,0.06101 0,0.0625 -7.11e-4,0.0015 -0.03061,0.02973 -0.03125,0.03125 -6.37e-4,0.0015 5.61e-4,0.0297 0,0.03125 -5.61e-4,0.0016 -0.03077,0.06092 -0.03125,0.0625 -4.83e-4,0.0016 4.04e-4,0.02965 0,0.03125 -4.04e-4,0.0016 3.25e-4,0.02963 0,0.03125 -3.25e-4,0.0016 -0.03101,0.06087 -0.03125,0.0625 -2.44e-4,0.0016 1.63e-4,0.02961 0,0.03125 -1.63e-4,0.0016 8.2e-5,0.06085 0,0.0625 -8.2e-5,0.0016 0,0.0296 0,0.03125 0,0.0017 -8.2e-5,0.0296 0,0.03125 8.2e-5,0.0016 -1.63e-4,0.06086 0,0.0625 1.63e-4,0.0016 -2.44e-4,0.02962 0,0.03125 2.44e-4,0.0016 0.03093,0.06088 0.03125,0.0625 3.25e-4,0.0016 -4.04e-4,0.02965 0,0.03125 4.04e-4,0.0016 -4.83e-4,0.02967 0,0.03125 4.83e-4,0.0016 0.03069,0.06095 0.03125,0.0625 5.61e-4,0.0016 -6.37e-4,0.02973 0,0.03125 6.37e-4,0.0015 0.03054,0.02976 0.03125,0.03125 7.11e-4,0.0015 -7.84e-4,0.06105 0,0.0625 7.84e-4,0.0015 0.03039,0.02984 0.03125,0.03125 8.55e-4,0.0014 0.03033,0.02988 0.03125,0.03125 9.24e-4,0.0014 0.03026,0.02993 0.03125,0.03125 9.9e-4,0.0013 0.0302,0.02998 0.03125,0.03125 0.0011,0.0013 0.03013,0.03004 0.03125,0.03125 0.0011,0.0012 0.03007,0.06134 0.03125,0.0625 0.0012,0.0012 0.03002,-0.0011 0.03125,0 0.0012,0.0011 0.02997,0.03021 0.03125,0.03125 0.0013,0.001 0.02992,0.03028 0.03125,0.03125 0.0013,9.71e-4 0.02987,0.03035 0.03125,0.03125 0.0014,9.04e-4 0.02983,0.03042 0.03125,0.03125 0.0014,8.35e-4 0.02979,0.03049 0.03125,0.03125 0.0015,7.63e-4 0.061,-6.9e-4 0.0625,0 0.0015,6.9e-4 0.02972,0.03064 0.03125,0.03125 0.0015,6.15e-4 0.02969,-5.39e-4 0.03125,0 0.0016,5.39e-4 0.06092,0.03079 0.0625,0.03125 0.0016,4.61e-4 0.02965,-3.82e-4 0.03125,0 0.0016,3.82e-4 0.06088,-3.02e-4 0.0625,0 0.0016,3.02e-4 0.02961,0.03103 0.03125,0.03125 0.0016,2.21e-4 0.02961,-1.4e-4 0.03125,0 0.0016,1.4e-4 0.06085,-5.8e-5 0.0625,0 0.0016,5.8e-5 0.0296,2.3e-5 0.03125,0 l 2.8125,0 c 0.576637,4.106124 3.786254,7.281119 7.90625,7.8125 l 0,2.71875 c -2.3e-5,0.0016 -5.8e-5,0.0296 0,0.03125 5.8e-5,0.0016 -1.4e-4,0.06086 0,0.0625 1.4e-4,0.0016 -2.21e-4,0.02961 0,0.03125 2.21e-4,0.0016 0.03095,0.02963 0.03125,0.03125 3.02e-4,0.0016 -3.82e-4,0.06089 0,0.0625 3.82e-4,0.0016 -4.61e-4,0.02967 0,0.03125 4.61e-4,0.0016 0.03071,0.06094 0.03125,0.0625 5.39e-4,0.0016 -6.15e-4,0.02972 0,0.03125 6.15e-4,0.0015 0.03056,0.02975 0.03125,0.03125 6.9e-4,0.0015 -7.63e-4,0.06104 0,0.0625 7.63e-4,0.0015 0.03041,0.02983 0.03125,0.03125 8.35e-4,0.0014 0.03035,0.02987 0.03125,0.03125 9.04e-4,0.0014 0.03028,0.02992 0.03125,0.03125 9.71e-4,0.0013 0.03021,0.02997 0.03125,0.03125 0.001,0.0013 0.03015,0.03002 0.03125,0.03125 0.0011,0.0012 -0.0012,0.03008 0,0.03125 0.0012,0.0012 0.06128,0.03013 0.0625,0.03125 0.0012,0.0011 0.02998,0.0302 0.03125,0.03125 0.0013,0.0011 0.02993,0.03026 0.03125,0.03125 0.0013,9.9e-4 0.02988,0.03033 0.03125,0.03125 0.0014,9.24e-4 0.02984,0.03039 0.03125,0.03125 0.0014,8.55e-4 0.0298,0.03047 0.03125,0.03125 0.0015,7.84e-4 0.06101,-7.11e-4 0.0625,0 0.0015,7.11e-4 0.02973,0.03061 0.03125,0.03125 0.0015,6.37e-4 0.0297,-5.61e-4 0.03125,0 0.0016,5.61e-4 0.06092,0.03077 0.0625,0.03125 0.0016,4.83e-4 0.02965,-4.04e-4 0.03125,0 0.0016,4.04e-4 0.02963,-3.25e-4 0.03125,0 0.0016,3.25e-4 0.06087,0.03101 0.0625,0.03125 0.0016,2.44e-4 0.02961,-1.63e-4 0.03125,0 0.0016,1.63e-4 0.06085,-8.2e-5 0.0625,0 0.0016,8.2e-5 0.0296,0 0.03125,0 0.0016,0 0.0296,8.2e-5 0.03125,0 0.0016,-8.2e-5 0.06086,1.63e-4 0.0625,0 0.0016,-1.63e-4 0.02962,2.44e-4 0.03125,0 0.0016,-2.44e-4 0.06088,-0.03092 0.0625,-0.03125 0.0016,-3.25e-4 0.02965,4.04e-4 0.03125,0 0.0016,-4.04e-4 0.02967,4.83e-4 0.03125,0 0.0016,-4.83e-4 0.06095,-0.03069 0.0625,-0.03125 0.0016,-5.61e-4 0.02973,6.37e-4 0.03125,0 0.0015,-6.37e-4 0.02976,-0.03054 0.03125,-0.03125 0.0015,-7.11e-4 0.06105,7.84e-4 0.0625,0 0.0015,-7.84e-4 0.02984,-0.03039 0.03125,-0.03125 0.0014,-8.55e-4 0.02988,-0.03033 0.03125,-0.03125 0.0014,-9.24e-4 0.02993,-0.03026 0.03125,-0.03125 0.0013,-9.9e-4 0.02998,-0.0302 0.03125,-0.03125 0.0013,-0.0011 0.03003,-0.03013 0.03125,-0.03125 0.0012,-0.0011 0.06134,-0.03008 0.0625,-0.03125 0.0012,-0.0012 -0.0011,-0.03002 0,-0.03125 0.0011,-0.0012 0.03021,-0.02997 0.03125,-0.03125 0.001,-0.0013 0.03028,-0.02992 0.03125,-0.03125 9.71e-4,-0.0013 0.03035,-0.02987 0.03125,-0.03125 9.04e-4,-0.0014 0.03041,-0.02983 0.03125,-0.03125 8.35e-4,-0.0014 0.03049,-0.02979 0.03125,-0.03125 7.63e-4,-0.0015 -6.9e-4,-0.061 0,-0.0625 6.9e-4,-0.0015 0.03063,-0.02972 0.03125,-0.03125 6.15e-4,-0.0015 -5.39e-4,-0.02969 0,-0.03125 5.39e-4,-0.0016 0.03079,-0.06092 0.03125,-0.0625 4.61e-4,-0.0016 -3.82e-4,-0.02964 0,-0.03125 3.82e-4,-0.0016 -3.02e-4,-0.06088 0,-0.0625 3.02e-4,-0.0016 0.03103,-0.02961 0.03125,-0.03125 2.21e-4,-0.0016 -1.4e-4,-0.02961 0,-0.03125 1.4e-4,-0.0016 -5.8e-5,-0.06085 0,-0.0625 5.8e-5,-0.0016 2.3e-5,-0.0296 0,-0.03125 l 0,-2.625 c 4.356967,-0.321945 7.804996,-3.631344 8.40625,-7.90625 l 2.71875,0 c 0.0016,2.3e-5 0.0296,5.8e-5 0.03125,0 0.0016,-5.8e-5 0.06086,1.4e-4 0.0625,0 0.0016,-1.4e-4 0.02962,2.21e-4 0.03125,0 0.0016,-2.21e-4 0.02963,-0.03095 0.03125,-0.03125 0.0016,-3.02e-4 0.0609,3.82e-4 0.0625,0 0.0016,-3.82e-4 0.02967,4.61e-4 0.03125,0 0.0016,-4.61e-4 0.06094,-0.03071 0.0625,-0.03125 0.0016,-5.39e-4 0.02972,6.15e-4 0.03125,0 0.0015,-6.15e-4 0.02975,-0.03056 0.03125,-0.03125 0.0015,-6.9e-4 0.06104,7.63e-4 0.0625,0 0.0015,-7.63e-4 0.02983,-0.03042 0.03125,-0.03125 0.0014,-8.35e-4 0.02987,-0.03035 0.03125,-0.03125 0.0014,-9.04e-4 0.02992,-0.03028 0.03125,-0.03125 0.0013,-9.71e-4 0.02997,-0.03021 0.03125,-0.03125 0.0013,-0.001 0.03002,-0.03015 0.03125,-0.03125 0.0012,-0.0011 0.03007,0.0012 0.03125,0 0.0012,-0.0012 0.03013,-0.06129 0.03125,-0.0625 0.0011,-0.0012 0.0302,-0.02998 0.03125,-0.03125 0.0011,-0.0013 0.03026,-0.02993 0.03125,-0.03125 9.9e-4,-0.0013 0.03033,-0.02988 0.03125,-0.03125 9.24e-4,-0.0014 0.03039,-0.02984 0.03125,-0.03125 8.55e-4,-0.0014 0.03047,-0.0298 0.03125,-0.03125 7.84e-4,-0.0015 -7.11e-4,-0.06101 0,-0.0625 7.11e-4,-0.0015 0.03061,-0.02973 0.03125,-0.03125 6.37e-4,-0.0015 -5.61e-4,-0.0297 0,-0.03125 5.61e-4,-0.0016 0.03077,-0.06092 0.03125,-0.0625 4.83e-4,-0.0016 -4.04e-4,-0.02965 0,-0.03125 4.04e-4,-0.0016 -3.25e-4,-0.02963 0,-0.03125 3.25e-4,-0.0016 0.03101,-0.06087 0.03125,-0.0625 2.44e-4,-0.0016 -1.63e-4,-0.02961 0,-0.03125 1.63e-4,-0.0016 -8.2e-5,-0.06085 0,-0.0625 8.2e-5,-0.0016 0,-0.0296 0,-0.03125 0,-0.0017 8.2e-5,-0.0296 0,-0.03125 -8.2e-5,-0.0016 1.63e-4,-0.06086 0,-0.0625 -1.63e-4,-0.0016 2.44e-4,-0.02962 0,-0.03125 -2.44e-4,-0.0016 -0.03092,-0.06088 -0.03125,-0.0625 -3.25e-4,-0.0016 4.04e-4,-0.02965 0,-0.03125 -4.04e-4,-0.0016 4.83e-4,-0.02967 0,-0.03125 -4.83e-4,-0.0016 -0.03069,-0.06095 -0.03125,-0.0625 -5.61e-4,-0.0016 6.37e-4,-0.02973 0,-0.03125 -6.37e-4,-0.0015 -0.03054,-0.02976 -0.03125,-0.03125 -7.11e-4,-0.0015 7.84e-4,-0.06105 0,-0.0625 -7.84e-4,-0.0015 -0.03039,-0.02984 -0.03125,-0.03125 -8.55e-4,-0.0014 -0.03033,-0.02988 -0.03125,-0.03125 -9.24e-4,-0.0014 -0.03026,-0.02993 -0.03125,-0.03125 -9.9e-4,-0.0013 -0.0302,-0.02998 -0.03125,-0.03125 -0.0011,-0.0013 -0.03013,-0.03004 -0.03125,-0.03125 -0.0011,-0.0012 -0.03007,-0.06134 -0.03125,-0.0625 -0.0012,-0.0012 -0.03002,0.0011 -0.03125,0 -0.0012,-0.0011 -0.02997,-0.03021 -0.03125,-0.03125 -0.0013,-0.001 -0.02992,-0.03028 -0.03125,-0.03125 -0.0013,-9.71e-4 -0.02987,-0.03035 -0.03125,-0.03125 -0.0014,-9.04e-4 -0.02983,-0.03042 -0.03125,-0.03125 -0.0014,-8.35e-4 -0.02979,-0.03049 -0.03125,-0.03125 -0.0015,-7.63e-4 -0.061,6.9e-4 -0.0625,0 -0.0015,-6.9e-4 -0.02972,-0.03064 -0.03125,-0.03125 -0.0015,-6.15e-4 -0.02969,5.39e-4 -0.03125,0 -0.0016,-5.39e-4 -0.06092,-0.03079 -0.0625,-0.03125 -0.0016,-4.61e-4 -0.02965,3.82e-4 -0.03125,0 -0.0016,-3.82e-4 -0.06088,3.02e-4 -0.0625,0 -0.0016,-3.02e-4 -0.02962,-0.03103 -0.03125,-0.03125 -0.0016,-2.21e-4 -0.02961,1.4e-4 -0.03125,0 -0.0016,-1.4e-4 -0.06085,5.8e-5 -0.0625,0 -0.0016,-5.8e-5 -0.0296,-2.3e-5 -0.03125,0 l -2.5625,0 C 71.959907,12.193272 68.293407,8.5265296 63.6875,8.1875 l 0,-2.625 c 1.4e-5,-0.00177 8.1e-5,-0.029479 0,-0.03125 -8.1e-5,-0.00177 1.75e-4,-0.060735 0,-0.0625 -1.75e-4,-0.00176 -0.03098,-0.029497 -0.03125,-0.03125 -2.68e-4,-0.00175 3.61e-4,-0.060764 0,-0.0625 -3.61e-4,-0.00174 4.53e-4,-0.029536 0,-0.03125 -4.53e-4,-0.00171 -0.03071,-0.060812 -0.03125,-0.0625 -5.44e-4,-0.00169 6.33e-4,-0.029594 0,-0.03125 -6.33e-4,-0.00166 -0.03053,-0.06088 -0.03125,-0.0625 -7.2e-4,-0.00162 8.05e-4,-0.02967 0,-0.03125 -8.05e-4,-0.00158 -0.03036,-0.060965 -0.03125,-0.0625 -8.88e-4,-0.00153 -0.03028,-0.029765 -0.03125,-0.03125 -9.69e-4,-0.00149 -0.0302,-0.029818 -0.03125,-0.03125 -0.001,-0.00143 -0.03013,-0.029876 -0.03125,-0.03125 -0.0011,-0.00137 -0.03006,-0.029938 -0.03125,-0.03125 -0.0012,-0.00131 -0.02999,-0.061253 -0.03125,-0.0625 -0.0013,-0.00125 -0.02992,-0.030072 -0.03125,-0.03125 -0.0013,-0.00118 -0.02986,-0.030144 -0.03125,-0.03125 -0.0014,-0.00111 -0.02981,-0.03022 -0.03125,-0.03125 -0.0014,-0.00103 -0.061,9.523e-4 -0.0625,0 -0.0015,-9.523e-4 -0.02971,-0.030379 -0.03125,-0.03125 -0.0015,-8.713e-4 -0.02966,-0.030462 -0.03125,-0.03125 -0.0016,-7.879e-4 -0.06087,-0.030548 -0.0625,-0.03125 -0.0016,-7.022e-4 -0.02959,6.146e-4 -0.03125,0 -0.0017,-6.146e-4 -0.02956,-0.030725 -0.03125,-0.03125 -0.0017,-5.252e-4 -0.06078,4.343e-4 -0.0625,0 -0.0017,-4.343e-4 -0.02951,3.422e-4 -0.03125,0 -0.0017,-3.422e-4 -0.06074,-0.031001 -0.0625,-0.03125 -0.0018,-2.491e-4 -0.02948,1.554e-4 -0.03125,0 -0.0018,-1.554e-4 -0.06073,6.11e-5 -0.0625,0 -0.0018,-6.11e-5 -0.06073,-3.33e-5 -0.0625,0 -0.001,-6.51e-5 -0.01771,4.236e-4 -0.03125,0 -8.84e-4,6.38e-5 -0.01977,-0.00114 -0.03125,0 -0.001,0 -0.01771,-4.236e-4 -0.03125,0 -0.01354,4.236e-4 -0.03021,-6.51e-5 -0.03125,0 a 0.40017598,0.40017598 0 0 0 -0.03125,0 z M 63.6875,10 c 3.643934,0.319696 6.505705,3.158969 6.78125,6.8125 l -1.4375,0 C 68.754142,13.966483 66.522665,11.720014 63.6875,11.40625 l 0,-1.40625 z m -1.8125,0.125 0,1.4375 c -2.583976,0.51611 -4.61592,2.58308 -4.875,5.25 l -1.375,0 c 0.261654,-3.468467 2.861173,-6.148281 6.25,-6.6875 z m 1.15625,2.96875 c 2.373761,0 4.28125,1.907489 4.28125,4.28125 0,2.37376 -1.90427,4.25 -4.28125,4.25 -2.37698,0 -4.28125,-1.87624 -4.28125,-4.25 0,-2.373761 1.907489,-4.28125 4.28125,-4.28125 z m -7.21875,5.53125 1.4375,0 c 0.512044,2.323784 2.284836,4.096306 4.625,4.5625 l 0,1.4375 c -3.149153,-0.496678 -5.522838,-2.867133 -6.0625,-6 z m 13,0 1.4375,0 c -0.569413,3.308582 -3.173593,5.794158 -6.5625,6.09375 l 0,-1.4375 c 2.579375,-0.289475 4.575789,-2.163137 5.125,-4.65625 z"
       transform="matrix(2.2862681,0,0,2.2862681,-33.457999,0.03945853)" />
    <g
       id="compass"
       transform="matrix(2.2862681,0,0,2.2862681,-40.386438,0.03945853)">
      <path
         d="m 95.53125,7.71875 c -5.30218,0 -9.65625,4.319698 -9.65625,9.625 0,5.305303 4.350947,9.65625 9.65625,9.65625 5.30531,0 9.625,-4.354071 9.625,-9.65625 0,-5.302178 -4.32282,-9.625 -9.625,-9.625 z m 0,2.5 c 3.970811,0 7.125,3.15419 7.125,7.125 0,3.970811 -3.157698,7.15625 -7.125,7.15625 -3.967302,0 -7.15625,-3.188948 -7.15625,-7.15625 0,-3.967301 3.185439,-7.125 7.15625,-7.125 z"
         id="path3808"
         style="font-size:medium;font-style:normal;font-variant:normal;font-weight:normal;font-stretch:normal;text-indent:0;text-align:start;text-decoration:none;line-height:normal;letter-spacing:normal;word-spacing:normal;text-transform:none;direction:ltr;block-progression:tb;writing-mode:lr-tb;text-anchor:start;baseline-shift:baseline;color:#000000;fill:#f2f2f2;fill-opacity:1;fill-rule:nonzero;stroke:#000000;stroke-width:0.5;stroke-miterlimit:4;stroke-opacity:1;stroke-dasharray:none;marker:none;visibility:visible;display:inline;overflow:visible;enable-background:accumulate;font-family:Sans;-inkscape-font-specification:Sans"
         inkscape:original="M 95.53125 8.46875 C 90.625783 8.46875 86.625 12.438284 86.625 17.34375 C 86.625 22.249217 90.625783 26.25 95.53125 26.25 C 100.43672 26.25 104.40625 22.249217 104.40625 17.34375 C 104.40625 12.438284 100.43672 8.46875 95.53125 8.46875 z M 95.53125 9.46875 C 99.896277 9.46875 103.40625 12.978724 103.40625 17.34375 C 103.40625 21.708777 99.896277 25.25 95.53125 25.25 C 91.166223 25.25 87.625 21.708777 87.625 17.34375 C 87.625 12.978724 91.166223 9.46875 95.53125 9.46875 z "
         inkscape:radius="0.73537374"
         sodipodi:type="inkscape:offset" />
      <path
         sodipodi:nodetypes="cccc"
         inkscape:connector-curvature="0"
         id="path3783"
         d="M 92.37466,17.005038 95.892857,0.21932325 98.87534,17.005038 z"
         style="fill:#ff0000;stroke:#000000;stroke-width:0.5;stroke-linecap:butt;stroke-linejoin:round;stroke-miterlimit:4;stroke-opacity:1;stroke-dasharray:none" />
      <path
         sodipodi:nodetypes="cccc"
         style="fill:#ffffff;stroke:#000000;stroke-width:0.5;stroke-linecap:butt;stroke-linejoin:round;stroke-miterlimit:4;stroke-opacity:1;stroke-dasharray:none"
         d="m 92.395396,17.005038 3.497461,16.785714 2.951844,-16.785714 z"
         id="path3785"
         inkscape:connector-curvature="0" />
    </g>
    <g
       id="layers"
       transform="matrix(2.2862681,0,0,2.2862681,-17.869012,0.03945853)">
      <path
         sodipodi:nodetypes="ccccc"
         inkscape:connector-curvature="0"
         id="path3866"
         d="m 26.011428,19.199566 -11.869292,5.555839 12.12183,5.050762 11.490486,-5.555839 z"
         style="fill:#ffffff;stroke:#000000;stroke-width:0.5;stroke-linecap:butt;stroke-linejoin:round;stroke-miterlimit:4;stroke-opacity:1;stroke-dasharray:none" />
      <path
         style="fill:#ffffff;stroke:#000000;stroke-width:0.5;stroke-linecap:butt;stroke-linejoin:round;stroke-miterlimit:4;stroke-opacity:1;stroke-dasharray:none"
         d="m 26.011428,14.556709 -11.869292,5.555839 12.12183,5.050762 11.490486,-5.555839 z"
         id="path3825"
         inkscape:connector-curvature="0"
         sodipodi:nodetypes="ccccc" />
      <path
         sodipodi:nodetypes="ccccc"
         inkscape:connector-curvature="0"
         id="path3810"
         d="m 26.011428,10.011023 -11.869292,5.555839 12.12183,5.050762 11.490486,-5.555839 z"
         style="fill:#ffffff;stroke:#000000;stroke-width:0.5;stroke-linecap:butt;stroke-linejoin:round;stroke-miterlimit:4;stroke-opacity:1;stroke-dasharray:none" />
    </g>
    <g
       id="plus"
       inkscape:label="plus"
       transform="matrix(2.2862681,0,0,2.2862681,-38.076958,0.03945853)">
      <rect
         ry="1.563888"
         y="8.1492558"
         x="112.15922"
         height="16.602982"
         width="17.108055"
         id="rect3868"
         style="fill:#00ff00;fill-opacity:1;stroke:#000000;stroke-width:0.56453705;stroke-linecap:round;stroke-linejoin:round;stroke-miterlimit:4;stroke-opacity:1;stroke-dasharray:none;stroke-dashoffset:0" />
      <path
         inkscape:connector-curvature="0"
         id="rect3870"
         d="m 119.68065,10.033167 0,5.116117 -5.11612,0 0,2.434566 5.11612,0 0,5.116118 2.43457,0 0,-5.116118 5.11611,0 0,-2.434566 -5.11611,0 0,-5.116117 -2.43457,0 z"
         style="fill:#ffffff;fill-opacity:1;stroke:#000000;stroke-width:0.56453705;stroke-linecap:round;stroke-linejoin:round;stroke-miterlimit:4;stroke-opacity:1;stroke-dasharray:none;stroke-dashoffset:0" />
    </g>
    <g
       id="camera"
       transform="matrix(2.2862681,0,0,2.2862681,-17.869012,0.03945853)">
      <path
         sodipodi:nodetypes="ccccccccc"
         inkscape:connector-curvature="0"
         id="rect3879"
         d="m 135.09375,8.111517 0,3.794733 -7.5625,0 0,10.09375 18.1875,0 0,-10.09375 -2.78125,0 0,-3.794733 z"
         style="fill:#ffffff;fill-opacity:1;stroke:#000000;stroke-width:0.5;stroke-linecap:round;stroke-linejoin:round;stroke-miterlimit:4;stroke-opacity:1;stroke-dasharray:none;stroke-dashoffset:0" />
      <path
         sodipodi:type="inkscape:offset"
         inkscape:radius="-0.75761443"
         inkscape:original="M 135.09375 8.125 L 135.09375 11.90625 L 127.53125 11.90625 L 127.53125 22 L 145.71875 22 L 145.71875 11.90625 L 142.9375 11.90625 L 142.9375 8.125 L 135.09375 8.125 z "
         style="fill:#000000;fill-opacity:1;stroke:#000000;stroke-width:0.5;stroke-linecap:round;stroke-linejoin:round;stroke-miterlimit:4;stroke-opacity:0;stroke-dasharray:none;stroke-dashoffset:0"
         id="path4010"
         d="m 135.84375,8.875 0,3.03125 a 0.7576902,0.7576902 0 0 1 -0.75,0.75 l -6.8125,0 0,8.59375 16.6875,0 0,-8.59375 -2.03125,0 a 0.7576902,0.7576902 0 0 1 -0.75,-0.75 l 0,-3.03125 -6.34375,0 z" />
      <path
         transform="matrix(1.0930668,0,0,1.0930668,-12.93835,-1.5427691)"
         d="m 143.96824,16.577015 c 0,2.731598 -2.21439,4.945996 -4.94599,4.945996 -2.7316,0 -4.946,-2.214398 -4.946,-4.945996 0,-2.731598 2.2144,-4.945996 4.946,-4.945996 2.7316,0 4.94599,2.214398 4.94599,4.945996 z"
         sodipodi:ry="4.9459958"
         sodipodi:rx="4.9459958"
         sodipodi:cy="16.577015"
         sodipodi:cx="139.02225"
         id="path3883"
         style="fill:#ffffff;fill-opacity:1;stroke:#000000;stroke-width:0.5;stroke-linecap:round;stroke-linejoin:round;stroke-miterlimit:4;stroke-opacity:1;stroke-dasharray:none;stroke-dashoffset:0"
         sodipodi:type="arc" />
      <path
         sodipodi:type="arc"
         style="fill:#1a1a1a;fill-opacity:1;stroke:#000000;stroke-width:0.5;stroke-linecap:round;stroke-linejoin:round;stroke-miterlimit:4;stroke-opacity:0;stroke-dasharray:none;stroke-dashoffset:0"
         id="path4012"
         sodipodi:cx="139.02225"
         sodipodi:cy="16.577015"
         sodipodi:rx="4.2925262"
         sodipodi:ry="4.2925262"
         d="m 143.31477,16.577015 c 0,2.370697 -1.92183,4.292526 -4.29252,4.292526 -2.3707,0 -4.29253,-1.921829 -4.29253,-4.292526 0,-2.370697 1.92183,-4.292526 4.29253,-4.292526 2.37069,0 4.29252,1.921829 4.29252,4.292526 z"
         transform="matrix(1.0930668,0,0,1.0930668,-12.93835,-1.5427691)" />
      <path
         sodipodi:type="arc"
         style="fill:#ffffff;fill-opacity:1;stroke:#000000;stroke-width:0.5;stroke-linecap:round;stroke-linejoin:round;stroke-miterlimit:4;stroke-opacity:1;stroke-dasharray:none;stroke-dashoffset:0"
         id="path3886"
         sodipodi:cx="139.02225"
         sodipodi:cy="16.577015"
         sodipodi:rx="3.5597777"
         sodipodi:ry="3.5597777"
         d="m 142.58203,16.577015 c 0,1.966011 -1.59377,3.559778 -3.55978,3.559778 -1.96601,0 -3.55978,-1.593767 -3.55978,-3.559778 0,-1.966011 1.59377,-3.559778 3.55978,-3.559778 1.96601,0 3.55978,1.593767 3.55978,3.559778 z"
         transform="matrix(1.0930668,0,0,1.0930668,-12.93835,-1.5427691)" />
      <rect
         y="9.2534084"
         x="136.30746"
         height="1.3889593"
         width="5.3664551"
         id="rect3888"
         style="fill:#ffffff;fill-opacity:1;stroke:#000000;stroke-width:0.5;stroke-linecap:round;stroke-linejoin:round;stroke-miterlimit:4;stroke-opacity:0;stroke-dasharray:none;stroke-dashoffset:0" />
    </g>
    <g
       id="video"
       style="fill:#ffffff"
       transform="matrix(2.2862681,0,0,2.2862681,-17.869012,0.03945853)">
      <path
         inkscape:connector-curvature="0"
         id="rect3894"
         d="m 156.13099,6.5262454 c -1.81521,0 -3.31457,1.460369 -3.31457,3.275569 0,1.6951686 1.31549,3.0984326 2.96361,3.2755696 l 1.20884,2.378687 -4.05547,0 0,7.565006 14.27213,0 0,-2.80763 3.78251,2.924616 0,-8.929828 -3.78251,3.509539 0,-2.261703 -3.31457,0 0.42894,-2.534667 c 1.28704,-0.445478 2.22272,-1.681044 2.22272,-3.1195896 0,-1.8152 -1.46037,-3.275569 -3.27557,-3.275569 -1.8152,0 -3.31457,1.460369 -3.31457,3.275569 0,0.8871426 0.36458,1.7093986 0.93588,2.3006976 l -2.41769,0 c 0.57218,-0.59144 0.93588,-1.412791 0.93588,-2.3006976 0,-1.8152 -1.46037,-3.275569 -3.27556,-3.275569 z m 1.75476,7.0190776 4.32844,0 -0.27297,1.910748 -3.15859,0 -0.89688,-1.910748 z"
         style="fill:#ffffff;fill-opacity:1;stroke:#000000;stroke-width:0.62391806;stroke-linecap:round;stroke-linejoin:round;stroke-miterlimit:4;stroke-opacity:1;stroke-dasharray:none;stroke-dashoffset:0" />
      <path
         sodipodi:type="inkscape:offset"
         inkscape:radius="-0.71940958"
         inkscape:original="M 156.125 6.53125 C 154.30979 6.53125 152.8125 7.9973 152.8125 9.8125 C 152.8125 11.507669 154.13313 12.885363 155.78125 13.0625 L 157 15.46875 L 152.9375 15.46875 L 152.9375 23.03125 L 167.21875 23.03125 L 167.21875 20.21875 L 171 23.125 L 171 14.21875 L 167.21875 17.71875 L 167.21875 15.46875 L 163.90625 15.46875 L 164.3125 12.90625 C 165.59954 12.460772 166.53125 11.251046 166.53125 9.8125 C 166.53125 7.9973 165.09645 6.53125 163.28125 6.53125 C 161.46605 6.53125 159.9375 7.9973 159.9375 9.8125 C 159.9375 10.699643 160.3037 11.502451 160.875 12.09375 L 158.46875 12.09375 C 159.04093 11.50231 159.40625 10.700407 159.40625 9.8125 C 159.40625 7.9973 157.94019 6.53125 156.125 6.53125 z M 157.875 13.53125 L 162.21875 13.53125 L 161.9375 15.46875 L 158.78125 15.46875 L 157.875 13.53125 z "
         style="fill:#000000;fill-opacity:1;stroke:none"
         id="path4037"
         d="m 156.125,7.25 c -1.42786,0 -2.59375,1.1429092 -2.59375,2.5625 0,1.321529 1.01785,2.392103 2.3125,2.53125 A 0.71948153,0.71948153 0 0 1 156.4375,12.75 l 1.21875,2.40625 A 0.71948153,0.71948153 0 0 1 157,16.1875 l -3.34375,0 0,6.125 12.84375,0 0,-2.09375 a 0.71948153,0.71948153 0 0 1 1.15625,-0.5625 l 2.625,2.03125 0,-5.8125 -2.5625,2.375 A 0.71948153,0.71948153 0 0 1 166.5,17.71875 l 0,-1.53125 -2.59375,0 a 0.71948153,0.71948153 0 0 1 -0.71875,-0.84375 l 0.40625,-2.5625 a 0.71948153,0.71948153 0 0 1 0.46875,-0.5625 c 1.00803,-0.348905 1.75,-1.278333 1.75,-2.40625 0,-1.4361017 -1.10341,-2.5625 -2.53125,-2.5625 -1.42784,0 -2.625,1.1511686 -2.625,2.5625 0,0.689168 0.29805,1.31348 0.75,1.78125 a 0.71948153,0.71948153 0 0 1 -0.4375,1.21875 l 1.25,0 a 0.71948153,0.71948153 0 0 1 0.71875,0.8125 l -0.28125,1.9375 a 0.71948153,0.71948153 0 0 1 -0.71875,0.625 l -3.15625,0 A 0.71948153,0.71948153 0 0 1 158.125,15.78125 l -0.90625,-1.9375 A 0.71948153,0.71948153 0 0 1 157.875,12.8125 l 0.4375,0 a 0.71948153,0.71948153 0 0 1 -0.375,-1.21875 c 0.45263,-0.467868 0.75,-1.090672 0.75,-1.78125 0,-1.4278423 -1.13467,-2.5625 -2.5625,-2.5625 z" />
      <rect
         y="16.757113"
         x="156.18646"
         height="4.017859"
         width="8.2720633"
         id="rect3920"
         style="fill:#ffffff;fill-opacity:1;stroke:#000000;stroke-width:0.62391806;stroke-linecap:round;stroke-linejoin:round;stroke-miterlimit:4;stroke-opacity:1;stroke-dasharray:none;stroke-dashoffset:0" />
    </g>
    <g
       id="g4453">
      <rect
         style="fill:#f2f2f2;fill-opacity:1;stroke:#000000;stroke-width:1.53005898;stroke-linecap:round;stroke-linejoin:round;stroke-miterlimit:4;stroke-opacity:1;stroke-dasharray:none;stroke-dashoffset:0"
         id="rect4129"
         width="46.367786"
         height="44.99889"
         x="33.664257"
         y="88.938591"
         ry="4.2385893" />
      <path
         transform="matrix(5.8850092,0,0,5.8850092,-1126.423,-284.8971)"
         d="m 202.7191,67.451469 c 0,0.860667 -0.69771,1.558376 -1.55838,1.558376 -0.86067,0 -1.55837,-0.697709 -1.55837,-1.558376 0,-0.860667 0.6977,-1.558375 1.55837,-1.558375 0.86067,0 1.55838,0.697708 1.55838,1.558375 z"
         sodipodi:ry="1.5583754"
         sodipodi:rx="1.5583754"
         sodipodi:cy="67.451469"
         sodipodi:cx="201.16072"
         id="path4056"
         style="fill:#ffc32a;fill-opacity:1;stroke:#000000;stroke-width:0.23027064;stroke-miterlimit:4;stroke-opacity:1;stroke-dasharray:none"
         sodipodi:type="arc" />
    </g>
    <g
       id="hslider"
       transform="matrix(2.7102897,0,0,2.7102897,-430.84145,58.851747)">
      <rect
         style="fill:#cccccc;fill-opacity:1;stroke:#000000;stroke-width:0.55344635;stroke-linecap:round;stroke-linejoin:round;stroke-miterlimit:4;stroke-opacity:1;stroke-dasharray:none;stroke-dashoffset:0"
         id="hslider-bar"
         width="73.239403"
         height="3.5051603"
         x="224.72211"
         y="37.776882"
         ry="1.563888" />
      <rect
         style="fill:#ffc32a;fill-opacity:1;stroke:#000000;stroke-width:0.55344635;stroke-linecap:round;stroke-linejoin:round;stroke-miterlimit:4;stroke-opacity:1;stroke-dasharray:none;stroke-dashoffset:0"
         id="hslider-between"
         width="24.167158"
         height="3.9663656"
         x="248.23907"
         y="37.560749"
         ry="0.57701874" />
      <path
         sodipodi:type="arc"
         style="fill:#ffc32a;fill-opacity:1;stroke:#000000;stroke-width:1.5;stroke-miterlimit:4;stroke-dasharray:none"
         id="hslider-left"
         sodipodi:cx="179.5"
         sodipodi:cy="54.733185"
         sodipodi:rx="10"
         sodipodi:ry="10"
         d="m 189.5,54.733185 c 0,5.522847 -4.47715,10 -10,10 -5.52285,0 -10,-4.477153 -10,-10 0,-5.522848 4.47715,-10 10,-10 5.52285,0 10,4.477152 10,10 z"
         transform="matrix(0.36896425,0,0,0.36896425,182.29122,19.334874)" />
      <path
         transform="matrix(0.36896425,0,0,0.36896425,206.64286,19.334874)"
         d="m 189.5,54.733185 c 0,5.522847 -4.47715,10 -10,10 -5.52285,0 -10,-4.477153 -10,-10 0,-5.522848 4.47715,-10 10,-10 5.52285,0 10,4.477152 10,10 z"
         sodipodi:ry="10"
         sodipodi:rx="10"
         sodipodi:cy="54.733185"
         sodipodi:cx="179.5"
         id="hslider-right"
         style="fill:#ffc32a;fill-opacity:1;stroke:#000000;stroke-width:1.5;stroke-miterlimit:4;stroke-dasharray:none"
         sodipodi:type="arc" />
    </g>
    <g
       id="line"
       transform="matrix(2.7102897,0,0,2.7102897,-498.36584,66.851747)">
      <rect
         ry="1.563888"
         y="8.1492558"
         x="216.75568"
         height="16.602982"
         width="17.108055"
         id="rect4146"
         style="fill:#f2f2f2;fill-opacity:1;stroke:#000000;stroke-width:0.56453705;stroke-linecap:round;stroke-linejoin:round;stroke-miterlimit:4;stroke-opacity:1;stroke-dasharray:none;stroke-dashoffset:0" />
      <path
         inkscape:connector-curvature="0"
         id="path4074"
         d="m 221.5242,13.655508 6.51786,6.607143 1.42857,-1.25 -6.69643,-6.428571 z"
         style="fill:#000000;stroke:none" />
      <path
         sodipodi:type="arc"
         style="fill:#ffc32a;fill-opacity:1;stroke:#000000;stroke-width:0.23027064;stroke-miterlimit:4;stroke-opacity:1;stroke-dasharray:none"
         id="path4070"
         sodipodi:cx="201.16072"
         sodipodi:cy="67.451469"
         sodipodi:rx="1.3525015"
         sodipodi:ry="1.3525015"
         d="m 202.51322,67.451469 c 0,0.746966 -0.60553,1.352502 -1.3525,1.352502 -0.74697,0 -1.3525,-0.605536 -1.3525,-1.352502 0,-0.746966 0.60553,-1.352501 1.3525,-1.352501 0.74697,0 1.3525,0.605535 1.3525,1.352501 z"
         transform="matrix(2.171358,0,0,2.171358,-215.33535,-133.68966)" />
      <path
         transform="matrix(2.171358,0,0,2.171358,-208.01392,-126.54681)"
         d="m 202.51322,67.451469 c 0,0.746966 -0.60553,1.352502 -1.3525,1.352502 -0.74697,0 -1.3525,-0.605536 -1.3525,-1.352502 0,-0.746966 0.60553,-1.352501 1.3525,-1.352501 0.74697,0 1.3525,0.605535 1.3525,1.352501 z"
         sodipodi:ry="1.3525015"
         sodipodi:rx="1.3525015"
         sodipodi:cy="67.451469"
         sodipodi:cx="201.16072"
         id="path4072"
         style="fill:#ffc32a;fill-opacity:1;stroke:#000000;stroke-width:0.23027064;stroke-miterlimit:4;stroke-opacity:1;stroke-dasharray:none"
         sodipodi:type="arc" />
    </g>
    <g
       id="area"
       transform="matrix(2.7102897,0,0,2.7102897,-492.89023,66.851747)">
      <rect
         ry="1.563888"
         y="8.1492558"
         x="235.69603"
         height="16.602982"
         width="17.108055"
         id="rect4157"
         style="fill:#f2f2f2;fill-opacity:1;stroke:#000000;stroke-width:0.56453705;stroke-linecap:round;stroke-linejoin:round;stroke-miterlimit:4;stroke-opacity:1;stroke-dasharray:none;stroke-dashoffset:0" />
      <path
         style="fill:#000000;stroke:none"
         d="m 239.83434,13.254576 8.12689,4.482242 1.0144,-1.604465 -8.24735,-4.260283 z"
         id="path4076"
         inkscape:connector-curvature="0" />
      <path
         inkscape:connector-curvature="0"
         id="path4110"
         d="m 238.84565,12.334133 1.09321,9.216384 1.89502,-0.110562 -1.34379,-9.18493 z"
         style="fill:#000000;stroke:none" />
      <path
         transform="matrix(2.0781097,-0.62948842,0.62948842,2.0781097,-220.98971,-1.0877502)"
         d="m 202.28061,67.451469 c 0,0.6185 -0.50139,1.119893 -1.11989,1.119893 -0.6185,0 -1.11989,-0.501393 -1.11989,-1.119893 0,-0.618499 0.50139,-1.119893 1.11989,-1.119893 0.6185,0 1.11989,0.501394 1.11989,1.119893 z"
         sodipodi:ry="1.1198931"
         sodipodi:rx="1.1198931"
         sodipodi:cy="67.451469"
         sodipodi:cx="201.16072"
         id="path4078"
         style="fill:#ffc32a;fill-opacity:1;stroke:#000000;stroke-width:0.23027064;stroke-miterlimit:4;stroke-opacity:1;stroke-dasharray:none"
         sodipodi:type="arc" />
      <path
         style="fill:#000000;stroke:none"
         d="m 240.68526,21.791773 8.51493,-3.692255 -0.64977,-1.783572 -8.41289,3.923267 z"
         id="path4112"
         inkscape:connector-curvature="0" />
      <path
         sodipodi:type="arc"
         style="fill:#ffc32a;fill-opacity:1;stroke:#000000;stroke-width:0.23027064;stroke-miterlimit:4;stroke-opacity:1;stroke-dasharray:none"
         id="path4106"
         sodipodi:cx="201.16072"
         sodipodi:cy="67.451469"
         sodipodi:rx="1.1198931"
         sodipodi:ry="1.1198931"
         d="m 202.28061,67.451469 c 0,0.6185 -0.50139,1.119893 -1.11989,1.119893 -0.6185,0 -1.11989,-0.501393 -1.11989,-1.119893 0,-0.618499 0.50139,-1.119893 1.11989,-1.119893 0.6185,0 1.11989,0.501394 1.11989,1.119893 z"
         transform="matrix(2.0781097,-0.62948842,0.62948842,2.0781097,-211.53153,3.567532)" />
      <path
         transform="matrix(2.0781097,-0.62948842,0.62948842,2.0781097,-219.78217,7.2541797)"
         d="m 202.28061,67.451469 c 0,0.6185 -0.50139,1.119893 -1.11989,1.119893 -0.6185,0 -1.11989,-0.501393 -1.11989,-1.119893 0,-0.618499 0.50139,-1.119893 1.11989,-1.119893 0.6185,0 1.11989,0.501394 1.11989,1.119893 z"
         sodipodi:ry="1.1198931"
         sodipodi:rx="1.1198931"
         sodipodi:cy="67.451469"
         sodipodi:cx="201.16072"
         id="path4108"
         style="fill:#ffc32a;fill-opacity:1;stroke:#000000;stroke-width:0.23027064;stroke-miterlimit:4;stroke-opacity:1;stroke-dasharray:none"
         sodipodi:type="arc" />
    </g>
    <g
       id="upload"
       transform="translate(-414,70)">
      <rect
         ry="4.2385893"
         y="17.992207"
         x="617.0899"
         height="44.99889"
         width="46.367786"
         id="rect4180"
         style="fill:#f2f2f2;fill-opacity:1;stroke:#000000;stroke-width:1.53005898;stroke-linecap:round;stroke-linejoin:round;stroke-miterlimit:4;stroke-opacity:1;stroke-dasharray:none;stroke-dashoffset:0" />
      <path
         sodipodi:nodetypes="cccccccc"
         inkscape:connector-curvature="0"
         id="path4204"
         d="m 650.22421,21.022359 -10.41581,9.905226 6.06858,0 0,10.080277 8.92786,0 0,-10.080277 5.63093,0 z"
         style="fill:#00ff00;stroke:#000000;stroke-width:1.63385141;stroke-linecap:butt;stroke-linejoin:round;stroke-miterlimit:4;stroke-opacity:1;stroke-dasharray:none" />
      <path
         inkscape:connector-curvature="0"
         id="rect4197"
         d="m 624.0533,34.381787 0,22.873921 17.35966,0 0,-15.01101 -7.8629,-7.862911 -9.49676,0 z"
         style="fill:#ffffff;fill-opacity:1;stroke:#000000;stroke-width:1.63385141;stroke-miterlimit:4;stroke-dasharray:none" />
      <path
         inkscape:connector-curvature="0"
         id="path4202"
         d="m 633.43717,34.957691 0,7.014366 7.63324,0 z"
         style="fill:#ffffff;stroke:#000000;stroke-width:1.63385141;stroke-linecap:butt;stroke-linejoin:bevel;stroke-miterlimit:4;stroke-opacity:1;stroke-dasharray:none" />
      <path
         transform="matrix(2.7102897,0,0,2.7102897,356.42093,-155.09649)"
         d="m 108.16964,75.911285 c 0,0.456128 -0.36976,0.825893 -0.82589,0.825893 -0.45613,0 -0.82589,-0.369765 -0.82589,-0.825893 0,-0.456128 0.36976,-0.825892 0.82589,-0.825892 0.45613,0 0.82589,0.369764 0.82589,0.825892 z"
         sodipodi:ry="0.82589281"
         sodipodi:rx="0.82589281"
         sodipodi:cy="75.911285"
         sodipodi:cx="107.34375"
         id="path4209"
         style="fill:#000000;fill-opacity:1;stroke:none"
         sodipodi:type="arc" />
      <path
         transform="matrix(2.7102897,0,0,2.7102897,361.62372,-155.09649)"
         sodipodi:type="arc"
         style="fill:#000000;fill-opacity:1;stroke:none"
         id="path4211"
         sodipodi:cx="107.34375"
         sodipodi:cy="75.911285"
         sodipodi:rx="0.82589281"
         sodipodi:ry="0.82589281"
         d="m 108.16964,75.911285 c 0,0.456128 -0.36976,0.825893 -0.82589,0.825893 -0.45613,0 -0.82589,-0.369765 -0.82589,-0.825893 0,-0.456128 0.36976,-0.825892 0.82589,-0.825892 0.45613,0 0.82589,0.369764 0.82589,0.825892 z" />
      <path
         d="m 108.16964,75.911285 c 0,0.456128 -0.36976,0.825893 -0.82589,0.825893 -0.45613,0 -0.82589,-0.369765 -0.82589,-0.825893 0,-0.456128 0.36976,-0.825892 0.82589,-0.825892 0.45613,0 0.82589,0.369764 0.82589,0.825892 z"
         sodipodi:ry="0.82589281"
         sodipodi:rx="0.82589281"
         sodipodi:cy="75.911285"
         sodipodi:cx="107.34375"
         id="path4213"
         style="fill:#000000;fill-opacity:1;stroke:none"
         sodipodi:type="arc"
         transform="matrix(2.7102897,0,0,2.7102897,367.0685,-155.09649)" />
    </g>
    <g
       id="g4457">
      <rect
         ry="4.2385893"
         y="87.507141"
         x="258.66425"
         height="44.99889"
         width="46.367786"
         id="rect4237"
         style="fill:#f2f2f2;fill-opacity:1;stroke:#000000;stroke-width:1.53005898;stroke-linecap:round;stroke-linejoin:round;stroke-miterlimit:4;stroke-opacity:1;stroke-dasharray:none;stroke-dashoffset:0" />
      <g
         transform="matrix(2.1652671,0,0,2.1652671,190.54608,-82.707102)"
         id="g4257">
        <path
           inkscape:connector-curvature="0"
           id="path4253"
           d="m 33.000702,89.086648 0,8.439659 6.405093,0 0,-5.538526 -2.90113,-2.901133 -3.503963,0 z"
           style="fill:#ffffff;fill-opacity:1;stroke:#000000;stroke-width:0.60283273;stroke-miterlimit:4;stroke-dasharray:none" />
        <path
           inkscape:connector-curvature="0"
           id="path4255"
           d="m 36.463015,89.299136 0,2.58805 2.81639,0 z"
           style="fill:#ffffff;stroke:#000000;stroke-width:0.60283273;stroke-linecap:butt;stroke-linejoin:bevel;stroke-miterlimit:4;stroke-opacity:1;stroke-dasharray:none" />
      </g>
      <g
         id="g4318"
         transform="matrix(2.1652671,0,0,2.1652671,216.19971,-102.51321)">
        <path
           style="fill:#ffffff;fill-opacity:1;stroke:#000000;stroke-width:0.60283273;stroke-miterlimit:4;stroke-dasharray:none"
           d="m 33.000702,89.086648 0,8.439659 6.405093,0 0,-5.538526 -2.90113,-2.901133 -3.503963,0 z"
           id="path4320"
           inkscape:connector-curvature="0" />
        <path
           style="fill:#ffffff;stroke:#000000;stroke-width:0.60283273;stroke-linecap:butt;stroke-linejoin:bevel;stroke-miterlimit:4;stroke-opacity:1;stroke-dasharray:none"
           d="m 36.463015,89.299136 0,2.58805 2.81639,0 z"
           id="path4322"
           inkscape:connector-curvature="0" />
      </g>
      <path
         style="fill:#00ff00;stroke:#000000;stroke-width:1.06705046;stroke-linecap:butt;stroke-linejoin:round;stroke-miterlimit:4;stroke-opacity:1;stroke-dasharray:none"
         d="m 288.38167,112.49945 -6.18418,4.83731 -2.48976,-2.48975 0,7.87156 8.90844,0.0175 -2.51438,-2.36269 9.56699,-7.80506 z"
         id="path4339"
         inkscape:connector-curvature="0"
         sodipodi:nodetypes="cccccccc" />
      <path
         sodipodi:nodetypes="cccccccc"
         inkscape:connector-curvature="0"
         id="path4365"
         d="m 276.02815,111.17661 6.49329,-5.368 2.48976,2.48975 0,-7.87155 -8.90844,-0.0175 2.51439,2.36268 -6.19782,4.8461 z"
         style="fill:#00ff00;stroke:#000000;stroke-width:1.06705046;stroke-linecap:butt;stroke-linejoin:round;stroke-miterlimit:4;stroke-opacity:1;stroke-dasharray:none" />
    </g>
    <g
       id="edit"
       transform="translate(-72,73)">
      <path
         id="path3965"
         d="m 415.71931,18.591835 -24.43354,28.11653 3.95249,-0.08983 0.35931,3.054192 4.40163,-0.449146 0.0897,2.425388 22.81661,-27.218238 -7.18634,-5.838896 z"
         style="fill:#ffc32a;fill-opacity:1;stroke:#000000;stroke-width:1.43726671;stroke-linecap:butt;stroke-linejoin:miter;stroke-miterlimit:4;stroke-opacity:1;stroke-dasharray:none"
         inkscape:connector-curvature="0" />
      <path
         id="path3949"
         d="m 415.71931,18.591835 7.18633,5.838896 5.56941,-6.647359 -6.91685,-5.838896 -5.83889,6.647359 z"
         style="fill:#ff8080;stroke:#000000;stroke-width:1.43726671;stroke-linecap:butt;stroke-linejoin:miter;stroke-miterlimit:4;stroke-opacity:1;stroke-dasharray:none"
         inkscape:connector-curvature="0" />
      <path
         id="path3989"
         d="m 392.81287,56.409915 -3.77283,-3.32368 -1.34743,5.299921 5.12026,-1.976241 z"
         style="fill:#999999;fill-opacity:1;stroke:#000000;stroke-width:1.43726671000000006;stroke-linecap:butt;stroke-linejoin:miter;stroke-miterlimit:4;stroke-opacity:1;stroke-dasharray:none"
         inkscape:connector-curvature="0" />
      <path
         id="path3969"
         d="m 395.23826,46.618535 -3.95249,0.08983 -0.80846,0.898291 -1.43727,5.479579 3.77283,3.32368 4.85077,-1.886413 2.42539,-2.874533 -0.0897,-2.425388 -4.40163,0.449146 -0.35932,-3.054192 z"
         style="fill:#ffffa0;fill-opacity:1;stroke:#000000;stroke-width:1.43726671;stroke-linecap:butt;stroke-linejoin:miter;stroke-miterlimit:4;stroke-opacity:1;stroke-dasharray:none"
         inkscape:connector-curvature="0" />
      <path
         style="fill:none;stroke:#000000;stroke-width:1px;stroke-linecap:butt;stroke-linejoin:miter;stroke-opacity:1"
         d="M 395.27269,46.502785 417.72333,20.163057"
         id="path4378"
         inkscape:connector-curvature="0" />
      <path
         style="fill:none;stroke:#000000;stroke-width:1px;stroke-linecap:butt;stroke-linejoin:miter;stroke-opacity:1"
         d="M 399.51533,48.977659 421.43564,23.345038"
         id="path4380"
         inkscape:connector-curvature="0" />
    </g>
    <g
       id="g4618">
      <rect
         transform="matrix(0,1,-1,0,0,0)"
         ry="4.2385893"
         y="-413.22055"
         x="-24.261959"
         height="9.5"
         width="198.5"
         id="vslider-bar"
         style="fill:#cccccc;fill-opacity:1;stroke:#000000;stroke-width:1.5;stroke-linecap:round;stroke-linejoin:round;stroke-miterlimit:4;stroke-opacity:1;stroke-dasharray:none;stroke-dashoffset:0" />
      <rect
         transform="matrix(0,1,-1,0,0,0)"
         ry="1.563888"
         y="-413.80634"
         x="39.475838"
         height="10.75"
         width="65.5"
         id="vslider-between"
         style="fill:#ffc32a;fill-opacity:1;stroke:#000000;stroke-width:1.5;stroke-linecap:round;stroke-linejoin:round;stroke-miterlimit:4;stroke-opacity:1;stroke-dasharray:none;stroke-dashoffset:0" />
      <path
         transform="matrix(0,1,-1,0,463.20375,-139.26195)"
         d="m 189.5,54.733185 a 10,10 0 1 1 -20,0 10,10 0 1 1 20,0 z"
         sodipodi:ry="10"
         sodipodi:rx="10"
         sodipodi:cy="54.733185"
         sodipodi:cx="179.5"
         id="vslider-top"
         style="fill:#ffc32a;fill-opacity:1;stroke:#000000;stroke-width:1.5;stroke-miterlimit:4;stroke-dasharray:none"
         sodipodi:type="arc" />
      <path
         sodipodi:type="arc"
         style="fill:#ffc32a;fill-opacity:1;stroke:#000000;stroke-width:1.5;stroke-miterlimit:4;stroke-dasharray:none"
         id="vslider-bottom"
         sodipodi:cx="179.5"
         sodipodi:cy="54.733185"
         sodipodi:rx="10"
         sodipodi:ry="10"
         d="m 189.5,54.733185 a 10,10 0 1 1 -20,0 10,10 0 1 1 20,0 z"
         transform="matrix(0,1,-1,0,463.20375,-73.261955)" />
    </g>
    <g
       id="g4595"
       transform="matrix(0,2.7102897,-2.7102897,0,515.60686,-633.32397)">
      <path
         sodipodi:type="inkscape:offset"
         inkscape:radius="1.25"
         inkscape:original="M 44.03125 187.125 L 44.03125 189.75 L 41.5 189.75 L 39 192 L 56 192 L 53.5 189.75 L 51.125 189.75 L 51.125 187.125 L 44.03125 187.125 z M 45.1875 188.34375 L 50.0625 188.34375 L 50.0625 189.75 L 45.1875 189.75 L 45.1875 188.34375 z M 39 193 L 41.5 212.75 L 53.5 212.75 L 56 193 L 39 193 z "
         style="fill:#000000;fill-opacity:1;stroke:#000000;stroke-width:1.5;stroke-linecap:round;stroke-linejoin:bevel;stroke-miterlimit:4;stroke-opacity:0;stroke-dashoffset:0"
         id="path4494"
         d="m 43.90625,185.875 a 1.250125,1.250125 0 0 0 -1.125,1.25 l 0,1.375 -1.28125,0 a 1.250125,1.250125 0 0 0 -0.84375,0.3125 l -2.5,2.25 A 1.250125,1.250125 0 0 0 37.875,192.5 1.250125,1.250125 0 0 0 37.75,193.15625 l 2.5,19.75 A 1.250125,1.250125 0 0 0 41.5,214 l 12,0 a 1.250125,1.250125 0 0 0 1.25,-1.09375 l 2.5,-19.75 A 1.250125,1.250125 0 0 0 57.15625,192.5 a 1.250125,1.250125 0 0 0 -0.3125,-1.4375 l -2.5,-2.25 A 1.250125,1.250125 0 0 0 53.5,188.5 l -1.125,0 0,-1.375 a 1.250125,1.250125 0 0 0 -1.25,-1.25 l -7.09375,0 a 1.250125,1.250125 0 0 0 -0.125,0 z"
         transform="matrix(0,-0.36896425,0.36896425,0,220.75574,188.80444)" />
      <path
         transform="matrix(0,-0.36896425,0.36896425,0,220.75574,188.80444)"
         style="fill:#e6e6e6;fill-opacity:1;stroke:#000000;stroke-width:1.5;stroke-linecap:round;stroke-linejoin:round;stroke-miterlimit:4;stroke-opacity:0;stroke-dashoffset:0"
         d="m 39,193 17,0 -2.5,19.75 -12,0 z"
         id="rect4478"
         inkscape:connector-curvature="0"
         sodipodi:nodetypes="ccccc" />
      <path
         inkscape:connector-curvature="0"
         style="fill:#e6e6e6;fill-opacity:1;stroke:#000000;stroke-width:1.5;stroke-linecap:round;stroke-linejoin:round;stroke-miterlimit:4;stroke-opacity:0;stroke-dashoffset:0"
         d="m 44.03125,187.125 0,2.625 -2.53125,0 -2.5,2.25 17,0 -2.5,-2.25 -2.375,0 0,-2.625 -7.09375,0 z m 1.15625,1.21875 4.875,0 0,1.40625 -4.875,0 0,-1.40625 z"
         transform="matrix(0,-0.36896425,0.36896425,0,220.75574,188.80444)"
         id="path4481" />
      <path
         inkscape:connector-curvature="0"
         style="font-size:medium;font-style:normal;font-variant:normal;font-weight:normal;font-stretch:normal;text-indent:0;text-align:start;text-decoration:none;line-height:normal;letter-spacing:normal;word-spacing:normal;text-transform:none;direction:ltr;block-progression:tb;writing-mode:lr-tb;text-anchor:start;baseline-shift:baseline;color:#000000;fill:#999999;fill-opacity:1;stroke:none;stroke-width:1px;marker:none;visibility:visible;display:inline;overflow:visible;enable-background:accumulate;font-family:Sans;-inkscape-font-specification:Sans"
         d="m 40.84375,193 1.84375,19.75 1.03125,0 -1.875,-19.75 -1,0 z"
         transform="matrix(0,-0.36896425,0.36896425,0,220.75574,188.80444)"
         id="path4496" />
      <path
         inkscape:connector-curvature="0"
         style="font-size:medium;font-style:normal;font-variant:normal;font-weight:normal;font-stretch:normal;text-indent:0;text-align:start;text-decoration:none;line-height:normal;letter-spacing:normal;word-spacing:normal;text-transform:none;direction:ltr;block-progression:tb;writing-mode:lr-tb;text-anchor:start;baseline-shift:baseline;color:#000000;fill:#999999;fill-opacity:1;stroke:none;stroke-width:1px;marker:none;visibility:visible;display:inline;overflow:visible;enable-background:accumulate;font-family:Sans;-inkscape-font-specification:Sans"
         d="m 43.65625,193 1.125,19.75 1,0 -1.125,-19.75 -1,0 z"
         transform="matrix(0,-0.36896425,0.36896425,0,220.75574,188.80444)"
         id="path4498" />
      <path
         inkscape:connector-curvature="0"
         style="font-size:medium;font-style:normal;font-variant:normal;font-weight:normal;font-stretch:normal;text-indent:0;text-align:start;text-decoration:none;line-height:normal;letter-spacing:normal;word-spacing:normal;text-transform:none;direction:ltr;block-progression:tb;writing-mode:lr-tb;text-anchor:start;baseline-shift:baseline;color:#000000;fill:#999999;fill-opacity:1;stroke:none;stroke-width:1px;marker:none;visibility:visible;display:inline;overflow:visible;enable-background:accumulate;font-family:Sans;-inkscape-font-specification:Sans"
         d="m 46.6875,193 0.25,19.75 1,0 -0.25,-19.75 -1,0 z"
         transform="matrix(0,-0.36896425,0.36896425,0,220.75574,188.80444)"
         id="path4500" />
      <path
         inkscape:connector-curvature="0"
         style="font-size:medium;font-style:normal;font-variant:normal;font-weight:normal;font-stretch:normal;text-indent:0;text-align:start;text-decoration:none;line-height:normal;letter-spacing:normal;word-spacing:normal;text-transform:none;direction:ltr;block-progression:tb;writing-mode:lr-tb;text-anchor:start;baseline-shift:baseline;color:#000000;fill:#999999;fill-opacity:1;stroke:none;stroke-width:1px;marker:none;visibility:visible;display:inline;overflow:visible;enable-background:accumulate;font-family:Sans;-inkscape-font-specification:Sans"
         d="m 50.09375,193 -1,19.75 1,0 1.03125,-19.75 -1.03125,0 z"
         transform="matrix(0,-0.36896425,0.36896425,0,220.75574,188.80444)"
         id="path4502" />
      <path
         inkscape:connector-curvature="0"
         style="font-size:medium;font-style:normal;font-variant:normal;font-weight:normal;font-stretch:normal;text-indent:0;text-align:start;text-decoration:none;line-height:normal;letter-spacing:normal;word-spacing:normal;text-transform:none;direction:ltr;block-progression:tb;writing-mode:lr-tb;text-anchor:start;baseline-shift:baseline;color:#000000;fill:#999999;fill-opacity:1;stroke:none;stroke-width:1px;marker:none;visibility:visible;display:inline;overflow:visible;enable-background:accumulate;font-family:Sans;-inkscape-font-specification:Sans"
         d="m 53.0625,193 -1.90625,19.75 1.03125,0 1.875,-19.75 -1,0 z"
         transform="matrix(0,-0.36896425,0.36896425,0,220.75574,188.80444)"
         id="path4504" />
    </g>
  </g>
</svg>
